{
 "asset": {
  "version": "2.0",
  "generator": "kengine gen_animation_pointer.py"
 },
 "extensionsUsed": [
  "KHR_animation_pointer",
  "KHR_materials_emissive_strength",
  "KHR_materials_iridescence"
 ],
 "scene": 0,
 "scenes": [
  {
   "nodes": [
    0,
    1,
    2,
    3
   ]
  }
 ],
 "nodes": [
  {
   "name": "ColorCycle",
   "mesh": 0,
   "translation": [
    -1.8,
    0.6,
    0
   ]
  },
  {
   "name": "Breathing",
   "mesh": 1,
   "translation": [
    0,
    0.6,
    0
   ]
  },
  {
   "name": "MetalRough",
   "mesh": 2,
   "translation": [
    1.8,
    0.6,
    0
   ]
  },
  {
   "name": "Iridescent",
   "mesh": 3,
   "translation": [
    0,
    2.1,
    0
   ]
  }
 ],
 "meshes": [
  {
   "name": "Cube0",
   "primitives": [
    {
     "attributes": {
      "POSITION": 0,
      "NORMAL": 1
     },
     "indices": 2,
     "material": 0
    }
   ]
  },
  {
   "name": "Cube1",
   "primitives": [
    {
     "attributes": {
      "POSITION": 0,
      "NORMAL": 1
     },
     "indices": 2,
     "material": 1
    }
   ]
  },
  {
   "name": "Cube2",
   "primitives": [
    {
     "attributes": {
      "POSITION": 0,
      "NORMAL": 1
     },
     "indices": 2,
     "material": 2
    }
   ]
  },
  {
   "name": "Cube3",
   "primitives": [
    {
     "attributes": {
      "POSITION": 0,
      "NORMAL": 1
     },
     "indices": 2,
     "material": 3
    }
   ]
  }
 ],
 "materials": [
  {
   "name": "ColorCycle",
   "pbrMetallicRoughness": {
    "baseColorFactor": [
     1,
     0,
     0,
     1
    ],
    "metallicFactor": 0.0,
    "roughnessFactor": 0.4
   }
  },
  {
   "name": "Breathing",
   "pbrMetallicRoughness": {
    "baseColorFactor": [
     0.05,
     0.05,
     0.05,
     1
    ],
    "metallicFactor": 0.0,
    "roughnessFactor": 0.6
   },
   "emissiveFactor": [
    1,
    0.45,
    0.1
   ],
   "extensions": {
    "KHR_materials_emissive_strength": {
     "emissiveStrength": 1.0
    }
   }
  },
  {
   "name": "MetalRough",
   "pbrMetallicRoughness": {
    "baseColorFactor": [
     0.9,
     0.75,
     0.4,
     1
    ],
    "metallicFactor": 1.0,
    "roughnessFactor": 0.0
   }
  },
  {
   "name": "Iridescent",
   "pbrMetallicRoughness": {
    "baseColorFactor": [
     0.1,
     0.1,
     0.12,
     1
    ],
    "metallicFactor": 1.0,
    "roughnessFactor": 0.15
   },
   "extensions": {
    "KHR_materials_iridescence": {
     "iridescenceFactor": 0.0,
     "iridescenceThicknessMaximum": 420
    }
   }
  }
 ],
 "accessors": [
  {
   "componentType": 5126,
   "count": 24,
   "type": "VEC3",
   "min": [
    -0.5,
    -0.5,
    -0.5
   ],
   "max": [
    0.5,
    0.5,
    0.5
   ],
   "bufferView": 0
  },
  {
   "componentType": 5126,
   "count": 24,
   "type": "VEC3",
   "bufferView": 1
  },
  {
   "componentType": 5123,
   "count": 36,
   "type": "SCALAR",
   "bufferView": 2
  },
  {
   "componentType": 5126,
   "count": 33,
   "type": "SCALAR",
   "min": [
    0.0
   ],
   "max": [
    4.0
   ],
   "bufferView": 3
  },
  {
   "componentType": 5126,
   "count": 33,
   "type": "VEC4",
   "bufferView": 4
  },
  {
   "componentType": 5126,
   "count": 33,
   "type": "VEC3",
   "bufferView": 5
  },
  {
   "componentType": 5126,
   "count": 33,
   "type": "SCALAR",
   "bufferView": 6
  },
  {
   "componentType": 5126,
   "count": 33,
   "type": "SCALAR",
   "bufferView": 7
  },
  {
   "componentType": 5126,
   "count": 33,
   "type": "SCALAR",
   "bufferView": 8
  },
  {
   "componentType": 5126,
   "count": 33,
   "type": "SCALAR",
   "bufferView": 9
  },
  {
   "componentType": 5126,
   "count": 33,
   "type": "VEC4",
   "bufferView": 10
  },
  {
   "componentType": 5126,
   "count": 33,
   "type": "VEC4",
   "bufferView": 11
  }
 ],
 "bufferViews": [
  {
   "buffer": 0,
   "byteOffset": 0,
   "byteLength": 288
  },
  {
   "buffer": 0,
   "byteOffset": 288,
   "byteLength": 288
  },
  {
   "buffer": 0,
   "byteOffset": 576,
   "byteLength": 72
  },
  {
   "buffer": 0,
   "byteOffset": 648,
   "byteLength": 132
  },
  {
   "buffer": 0,
   "byteOffset": 780,
   "byteLength": 528
  },
  {
   "buffer": 0,
   "byteOffset": 1308,
   "byteLength": 396
  },
  {
   "buffer": 0,
   "byteOffset": 1704,
   "byteLength": 132
  },
  {
   "buffer": 0,
   "byteOffset": 1836,
   "byteLength": 132
  },
  {
   "buffer": 0,
   "byteOffset": 1968,
   "byteLength": 132
  },
  {
   "buffer": 0,
   "byteOffset": 2100,
   "byteLength": 132
  },
  {
   "buffer": 0,
   "byteOffset": 2232,
   "byteLength": 528
  },
  {
   "buffer": 0,
   "byteOffset": 2760,
   "byteLength": 528
  }
 ],
 "buffers": [
  {
   "byteLength": 3288,
   "uri": "data:application/octet-stream;base64,"
  }
 ],
 "animations": [
  {
   "name": "PointerShowcase",
   "samplers": [
    {
     "input": 3,
     "output": 4,
     "interpolation": "LINEAR"
    },
    {
     "input": 3,
     "output": 5,
     "interpolation": "LINEAR"
    },
    {
     "input": 3,
     "output": 6,
     "interpolation": "LINEAR"
    },
    {
     "input": 3,
     "output": 7,
     "interpolation": "LINEAR"
    },
    {
     "input": 3,
     "output": 8,
     "interpolation": "LINEAR"
    },
    {
     "input": 3,
     "output": 9,
     "interpolation": "LINEAR"
    },
    {
     "input": 3,
     "output": 10,
     "interpolation": "LINEAR"
    },
    {
     "input": 3,
     "output": 11,
     "interpolation": "LINEAR"
    },
    {
     "input": 3,
     "output": 10,
     "interpolation": "LINEAR"
    },
    {
     "input": 3,
     "output": 11,
     "interpolation": "LINEAR"
    }
   ],
   "channels": [
    {
     "sampler": 0,
     "target": {
      "path": "pointer",
      "extensions": {
       "KHR_animation_pointer": {
        "pointer": "/materials/0/pbrMetallicRoughness/baseColorFactor"
       }
      }
     }
    },
    {
     "sampler": 1,
     "target": {
      "path": "pointer",
      "extensions": {
       "KHR_animation_pointer": {
        "pointer": "/materials/1/emissiveFactor"
       }
      }
     }
    },
    {
     "sampler": 2,
     "target": {
      "path": "pointer",
      "extensions": {
       "KHR_animation_pointer": {
        "pointer": "/materials/1/extensions/KHR_materials_emissive_strength/emissiveStrength"
       }
      }
     }
    },
    {
     "sampler": 3,
     "target": {
      "path": "pointer",
      "extensions": {
       "KHR_animation_pointer": {
        "pointer": "/materials/2/pbrMetallicRoughness/roughnessFactor"
       }
      }
     }
    },
    {
     "sampler": 4,
     "target": {
      "path": "pointer",
      "extensions": {
       "KHR_animation_pointer": {
        "pointer": "/materials/2/pbrMetallicRoughness/metallicFactor"
       }
      }
     }
    },
    {
     "sampler": 5,
     "target": {
      "path": "pointer",
      "extensions": {
       "KHR_animation_pointer": {
        "pointer": "/materials/3/extensions/KHR_materials_iridescence/iridescenceFactor"
       }
      }
     }
    },
    {
     "sampler": 6,
     "target": {
      "path": "pointer",
      "extensions": {
       "KHR_animation_pointer": {
        "pointer": "/nodes/0/rotation"
       }
      }
     }
    },
    {
     "sampler": 7,
     "target": {
      "path": "pointer",
      "extensions": {
       "KHR_animation_pointer": {
        "pointer": "/nodes/1/rotation"
       }
      }
     }
    },
    {
     "sampler": 8,
     "target": {
      "path": "pointer",
      "extensions": {
       "KHR_animation_pointer": {
        "pointer": "/nodes/2/rotation"
       }
      }
     }
    },
    {
     "sampler": 9,
     "target": {
      "path": "pointer",
      "extensions": {
       "KHR_animation_pointer": {
        "pointer": "/nodes/3/rotation"
       }
      }
     }
    }
   ]
  }
 ]
}